<?xml version="1.0" encoding="UTF-8" standalone="no"?>
<svg
   data-v-70b83f88=""
   version="1.0"
   width="100%"
   height="100%"
   viewBox="0 0 340.000000 250.000000"
   preserveAspectRatio="xMidYMid meet"
   color-interpolation-filters="sRGB"
   style="margin: auto;"
   id="svg155523"
   sodipodi:docname="logo.svg"
   inkscape:version="1.2.2 (732a01da63, 2022-12-09, custom)"
   xmlns:inkscape="http://www.inkscape.org/namespaces/inkscape"
   xmlns:sodipodi="http://sodipodi.sourceforge.net/DTD/sodipodi-0.dtd"
   xmlns="http://www.w3.org/2000/svg"
   xmlns:svg="http://www.w3.org/2000/svg">
  <sodipodi:namedview
     id="namedview155525"
     pagecolor="#ffffff"
     bordercolor="#000000"
     borderopacity="0.25"
     inkscape:showpageshadow="2"
     inkscape:pageopacity="0.0"
     inkscape:pagecheckerboard="0"
     inkscape:deskcolor="#d1d1d1"
     showgrid="false"
     inkscape:zoom="0.77912852"
     inkscape:cx="192.5228"
     inkscape:cy="134.12421"
     inkscape:window-width="1846"
     inkscape:window-height="1016"
     inkscape:window-x="74"
     inkscape:window-y="27"
     inkscape:window-maximized="1"
     inkscape:current-layer="svg155523" />
  <!---->
  <g
     id="g155685">
    <path
       d="M 31.571659,92.73988 V 56.274213 c 0,-2.005812 -1.203487,-4.894182 1.323836,-5.897088 2.527324,-1.002906 4.011625,1.444185 5.616275,2.768021 q 32.694739,26.757535 65.06855,53.715654 c 37.42846,30.92962 74.77668,61.9796 112.32549,92.66852 5.61627,4.61337 5.97732,7.26104 0.36104,11.8343 -14.0808,11.55347 -28.08137,23.18719 -41.64066,35.38252 -5.13488,4.65349 -8.54476,4.01163 -13.23836,0 Q 125.88495,216.2578 90.181493,186.05027 C 72.490229,170.76598 54.678616,155.5218 36.626306,140.39798 a 12.917431,12.917431 0 0 1 -5.255228,-11.19243 c 0.361046,-12.15523 0.200581,-24.31045 0.200581,-36.46567 z"
       fill="#f98d23"
       id="path155491"
       style="stroke-width:4.01162" />
    <path
       d="m 225.73429,108.30498 a 6.9802266,6.9802266 0 0 1 -3.36977,6.09767 c -14.16103,12.31569 -28.48253,24.4308 -42.44299,36.94706 -4.01162,3.45 -6.33836,2.72791 -9.82848,0 Q 106.9902,99.198595 43.686765,47.047477 C 39.033281,43.236433 39.675141,40.989924 43.887346,37.660275 58.930938,25.705634 73.894298,13.951574 88.657076,1.9568172 a 6.0174367,6.0174367 0 0 1 9.18662,0.3610462 Q 159.74306,54.027703 221.92324,105.49685 c 1.4843,1.20348 3.16919,2.20639 3.81105,2.80813 z m 82.84004,-15.083705 c 0,11.031965 -0.2407,22.104055 0,33.136015 a 12.997663,12.997663 0 0 1 -5.33546,11.27267 q -33.81799,28.48253 -67.27494,57.36623 c -4.25232,3.65058 -7.18081,4.49302 -12.03488,0.32093 -11.79417,-10.39011 -24.06974,-20.29882 -36.38543,-30.08719 -4.33255,-3.44999 -4.73372,-5.73662 -0.36105,-9.54766 q 57.40635,-49.54356 114.53188,-99.287708 c 1.60465,-1.404069 3.08895,-4.011625 5.4157,-3.129067 2.32674,0.882557 1.40406,4.011624 1.40406,5.97732 0.0802,11.312781 0.0401,22.625562 0.0401,33.97846 z m -7.9029,-47.858681 c -1.32384,1.404069 -2.32674,2.687789 -3.57035,3.770927 -20.05812,17.370334 -39.91566,34.700552 -59.7732,52.151119 a 4.8540656,4.8540656 0 0 1 -7.6622,0 C 213.25813,87.404419 196.69012,73.684663 180.12211,60.165489 176.79247,57.437584 175.46863,55.712585 179.8413,52.14224 199.61861,36.095742 219.07499,20.049244 238.49125,3.6015832 a 6.4587154,6.4587154 0 0 1 9.8686,-0.4011624 c 16.0465,13.0377792 32.33369,25.7546292 48.50054,38.6319442 1.28372,1.002906 2.40697,2.286626 3.81104,3.530229 z"
       fill="#db2241"
       id="path155493"
       style="stroke-width:4.01162" />
  </g>
  <defs
     v-gra="od"
     id="defs155521" />
</svg>
